<?xml version="1.0" encoding="utf-8"?>
<!-- Generator: Adobe Illustrator 24.1.0, SVG Export Plug-In . SVG Version: 6.00 Build 0)  -->
<svg version="1.1" id="Layer_1" xmlns="http://www.w3.org/2000/svg" xmlns:xlink="http://www.w3.org/1999/xlink" x="0px" y="0px"
	 viewBox="0 0 15 15" style="enable-background:new 0 0 15 15;" xml:space="preserve">
<style type="text/css">
	.st0{fill:#3FCB7F;}
</style>
<g id="Final-Mobile">
	<g id="Improve-Copy-98" transform="translate(-24.000000, -486.000000)">
		<g id="green-tick-outline" transform="translate(24.000000, 486.000000)">
			<g id="Path">
				<path class="st0" d="M7.5,15C3.4,15,0,11.6,0,7.5C0,3.4,3.4,0,7.5,0C11.6,0,15,3.4,15,7.5C15,11.6,11.6,15,7.5,15z M7.5,1.2
					C4,1.2,1.2,4,1.2,7.5s2.8,6.3,6.3,6.3s6.3-2.8,6.3-6.3S11,1.2,7.5,1.2z"/>
			</g>
			<g id="Path_1_">
				<path class="st0" d="M11.2,6.1L7.5,9.8C7.3,9.9,7.2,10,7,10S6.7,9.9,6.6,9.8l-2-2c-0.2-0.2-0.2-0.7,0-0.9c0.2-0.2,0.7-0.2,0.9,0
					L7,8.5l3.3-3.3c0.2-0.2,0.7-0.2,0.9,0C11.4,5.4,11.4,5.8,11.2,6.1z"/>
			</g>
		</g>
	</g>
</g>
</svg>
